<svg xmlns="http://www.w3.org/2000/svg" width="512" height="512" viewBox="0 0 512 512">
<g>
<path d="M 0.00 250.86 L 0.00 244.20 L 3.54 238.93 C5.49,236.04 9.88,230.52 13.29,226.66 C27.66,210.45 33.58,208.47 43.51,216.55 C59.91,229.91 79.27,239.17 100.00,243.57 C106.32,244.91 112.87,245.37 125.50,245.36 C141.24,245.34 143.36,245.11 154.08,242.28 C165.40,239.29 177.01,234.81 184.00,230.73 C191.16,226.55 198.58,221.64 201.00,219.45 C206.19,214.79 211.32,212.00 214.74,212.00 C218.97,212.00 223.46,214.52 224.91,217.71 C226.46,221.11 226.26,227.19 224.51,229.68 C223.40,231.27 213.14,239.92 209.15,242.62 C208.96,242.75 211.61,247.18 215.03,252.47 C219.71,259.70 221.28,263.02 221.36,265.87 C221.48,270.58 218.95,274.58 214.49,276.71 C207.28,280.15 201.37,275.85 192.58,260.75 C191.06,258.14 189.44,255.77 188.99,255.49 C188.53,255.21 184.24,256.56 179.45,258.49 C174.67,260.42 170.16,262.00 169.43,262.00 C166.91,262.00 166.91,264.05 169.45,273.58 C172.94,286.69 172.82,289.38 168.60,293.60 C164.74,297.46 160.04,298.11 154.97,295.48 C150.90,293.38 149.23,289.51 145.01,272.37 L 143.99 268.24 L 132.74 268.75 C126.56,269.03 121.30,269.44 121.05,269.66 C120.80,269.88 120.32,274.92 119.97,280.85 C119.15,294.70 117.47,297.89 109.66,300.41 C108.64,300.74 105.86,300.15 103.48,299.09 C96.79,296.13 95.73,293.18 96.15,278.71 L 96.50 266.71 L 87.00 264.25 C81.78,262.90 76.84,261.73 76.04,261.65 C75.07,261.55 73.14,265.04 70.31,272.00 C67.81,278.16 64.98,283.43 63.47,284.75 C58.59,289.01 49.56,286.93 46.41,280.82 C44.25,276.65 44.90,272.49 49.52,260.96 C53.13,251.93 53.20,251.54 51.38,250.26 C50.35,249.53 45.93,246.65 41.56,243.86 L 33.62 238.79 L 30.76 242.15 C29.19,243.99 26.05,247.89 23.79,250.81 C21.52,253.73 18.34,256.81 16.71,257.65 C12.42,259.87 7.31,258.61 3.29,254.34 L 0.00 250.86 ZM 512.00 243.34 L 512.00 250.53 L 509.75 253.77 C508.37,255.76 506.03,257.46 503.72,258.18 C498.32,259.83 494.42,257.67 487.72,249.31 L 487.64 249.20 C482.08,242.26 480.11,239.81 478.18,239.83 C477.11,239.84 476.06,240.61 474.41,241.78 C472.26,243.32 468.02,246.08 465.00,247.91 C461.98,249.74 459.41,251.31 459.30,251.40 C459.19,251.49 460.88,255.98 463.05,261.38 C468.21,274.21 468.33,278.87 463.60,283.60 C460.86,286.34 459.42,287.00 456.18,287.00 C450.01,287.00 446.87,283.70 442.60,272.75 C440.61,267.66 438.64,262.96 438.22,262.30 C437.63,261.39 435.77,261.57 430.47,263.04 C426.64,264.10 421.66,265.43 419.41,265.98 L 415.33 266.99 L 415.77 279.74 C416.20,291.86 416.11,292.64 413.94,295.37 C409.54,300.92 403.59,301.84 397.88,297.87 C394.23,295.33 393.25,292.06 392.56,280.07 C392.24,274.33 391.86,269.55 391.73,269.45 C391.60,269.35 386.28,269.02 379.89,268.72 L 368.28 268.18 L 367.02 273.84 C364.33,285.96 362.02,291.80 358.91,294.43 C353.24,299.19 344.74,297.18 341.47,290.29 C339.69,286.55 339.70,286.36 342.33,276.35 C345.34,264.89 345.60,262.00 343.63,262.00 C342.87,262.00 338.34,260.42 333.57,258.50 C328.79,256.58 324.52,255.00 324.08,255.00 C323.63,255.00 321.52,257.99 319.38,261.64 C313.80,271.18 308.57,276.80 304.57,277.55 C298.22,278.74 291.00,272.74 291.00,266.28 C291.00,263.79 292.67,260.16 297.00,253.26 C300.30,247.99 303.00,243.39 303.00,243.02 C303.00,242.65 299.86,239.91 296.02,236.92 C286.51,229.52 284.19,224.40 287.49,218.01 C289.62,213.90 292.81,212.00 297.59,212.00 C301.14,212.00 303.01,212.95 310.52,218.54 C337.06,238.33 364.01,247.10 393.75,245.62 C420.25,244.31 445.05,235.35 464.34,220.11 C473.54,212.85 475.16,212.01 480.00,212.00 C484.41,212.00 484.72,212.22 495.02,222.75 C500.80,228.66 506.99,235.71 508.77,238.42 L 512.00 243.34 Z" fill="#bf953f"/>
<path d="M 99.00 305.21 C101.73,305.62 103.87,305.17 105.65,303.81 C106.85,302.88 111.12,303.34 113.18,304.61 C115.36,305.96 119.05,305.61 120.58,303.91 C121.73,302.64 121.98,300.54 121.63,295.04 C121.37,291.08 120.93,287.60 120.65,287.32 C120.36,287.03 119.65,288.58 119.06,290.77 C118.84,291.61 118.53,292.43 118.15,293.22 C119.15,290.43 119.63,286.54 119.97,280.85 C120.04,279.66 120.11,278.51 120.19,277.43 C120.38,278.43 120.74,279.13 121.25,279.34 C123.43,280.22 123.90,280.05 125.00,278.00 C125.73,276.64 125.74,276.00 125.04,276.00 C124.47,276.00 124.00,275.48 124.00,274.83 C124.00,274.19 124.26,273.93 124.58,274.25 C124.90,274.57 126.69,274.19 128.55,273.41 C130.41,272.64 134.09,271.97 136.72,271.93 C141.71,271.86 144.46,271.13 144.41,269.94 L 145.01 272.37 C145.19,273.10 145.36,273.80 145.53,274.48 C144.75,273.70 143.25,273.91 142.70,275.34 C142.42,276.08 142.53,277.24 142.95,277.91 C143.37,278.59 143.52,280.80 143.29,282.82 C142.49,289.78 143.43,297.47 144.96,296.52 C146.50,295.57 149.04,297.18 150.51,300.03 C151.31,301.56 152.56,303.42 153.30,304.16 C155.60,306.46 169.92,305.30 168.46,302.93 C168.14,302.42 168.33,302.00 168.88,302.00 C169.43,302.00 169.69,301.01 169.46,299.80 C168.95,297.15 170.75,295.79 173.09,297.05 C175.38,298.27 176.78,296.37 176.62,292.25 C176.55,290.46 176.83,289.00 177.23,289.00 C177.84,289.00 177.58,282.67 176.60,273.50 C176.48,272.40 176.70,271.05 177.10,270.50 C177.49,269.95 177.97,268.38 178.18,267.00 C178.41,265.41 179.08,264.63 180.02,264.85 C180.84,265.04 183.17,265.34 185.20,265.51 C189.99,265.92 191.29,266.78 190.68,269.13 C190.00,271.71 192.63,274.26 194.82,273.13 C196.71,272.16 199.28,272.74 198.52,273.97 C197.93,274.92 199.91,280.96 200.85,281.09 C204.55,281.62 220.98,281.49 222.58,280.92 C225.10,280.02 225.54,277.72 224.68,270.06 C224.47,268.16 224.62,265.18 225.01,263.44 C225.41,261.69 225.32,259.53 224.81,258.63 C224.31,257.74 224.27,257.00 224.71,257.00 C225.16,257.00 225.52,255.31 225.51,253.25 C225.50,249.37 222.88,245.74 220.67,246.55 C218.51,247.34 216.75,245.38 217.49,243.03 C218.03,241.34 218.77,240.91 220.60,241.26 C224.07,241.93 226.40,239.87 225.79,236.69 C225.36,234.42 225.74,233.91 228.64,232.95 C230.49,232.34 232.04,231.54 232.09,231.17 C232.14,230.80 232.27,228.84 232.37,226.81 C232.47,224.77 232.84,222.82 233.20,222.47 C233.96,221.71 232.11,216.00 231.16,216.19 C229.44,216.53 226.77,214.47 225.33,211.68 C222.78,206.74 222.05,206.43 213.50,206.71 C200.01,207.15 199.74,207.21 199.34,210.00 C198.73,214.19 198.16,215.00 195.78,215.02 C194.53,215.02 192.87,215.43 192.09,215.92 C190.87,216.70 190.53,217.79 190.08,222.36 C190.04,222.83 189.32,222.95 188.50,222.64 C187.68,222.32 186.99,222.61 186.98,223.28 C186.97,224.22 186.79,224.22 186.18,223.26 C184.64,220.84 176.00,224.60 176.00,227.69 C176.00,230.44 173.55,231.50 167.60,231.33 C161.17,231.15 159.42,232.14 159.47,235.88 C159.50,238.02 159.00,238.30 154.60,238.64 C151.90,238.84 149.20,239.37 148.60,239.81 C147.23,240.81 116.32,240.65 101.31,239.56 C89.90,238.73 89.31,238.49 88.42,234.16 C87.95,231.86 87.08,231.56 80.20,231.37 C74.18,231.21 72.37,231.19 72.23,230.70 C72.17,230.49 72.42,230.19 72.78,229.77 C72.82,229.72 72.86,229.67 72.91,229.61 C73.78,228.56 73.77,227.59 72.87,225.61 C71.82,223.30 71.07,222.99 66.34,222.88 C63.40,222.81 60.55,222.64 60.00,222.50 C59.45,222.36 58.50,222.19 57.89,222.12 C57.25,222.05 57.02,221.04 57.36,219.70 C57.95,217.35 55.81,214.61 53.25,214.40 C52.56,214.35 51.28,214.23 50.39,214.15 C49.43,214.06 49.01,213.42 49.34,212.55 C49.67,211.70 48.71,210.09 47.03,208.68 C44.72,206.73 43.40,206.36 40.33,206.79 C35.89,207.41 32.67,207.38 28.61,206.66 C25.50,206.11 23.07,207.70 23.77,209.82 C24.45,211.84 20.94,215.12 18.83,214.45 C16.60,213.74 13.58,216.47 14.36,218.50 C14.99,220.13 12.55,223.00 10.54,223.00 C9.14,223.00 7.65,225.49 7.56,228.00 C7.52,228.88 5.95,229.88 3.75,230.43 L 0.00 231.35 L 0.00 0.00 L 512.00 0.00 L 512.00 231.35 L 508.25 230.43 C506.05,229.88 504.48,228.88 504.44,228.00 C504.35,225.49 502.86,223.00 501.46,223.00 C499.45,223.00 497.01,220.13 497.64,218.50 C498.43,216.42 495.40,213.74 493.09,214.47 C492.03,214.81 490.87,214.61 490.52,214.02 C490.16,213.44 489.44,213.23 488.93,213.54 C487.67,214.32 487.75,212.65 489.03,211.37 C492.02,208.38 485.93,204.80 481.38,206.87 C479.97,207.51 476.90,207.74 474.21,207.41 C471.62,207.08 468.48,206.69 467.23,206.54 C464.69,206.24 463.71,207.32 463.21,210.98 C462.79,214.02 462.91,213.90 459.94,214.23 C456.64,214.60 454.50,216.84 454.50,219.93 C454.50,222.77 453.22,223.18 444.75,223.03 C440.09,222.95 439.49,223.41 439.93,226.75 C440.01,227.44 439.62,228.00 439.04,228.00 C438.47,228.00 438.00,228.95 438.00,230.11 C438.00,231.57 437.54,232.04 436.49,231.64 C435.66,231.32 433.95,231.45 432.69,231.93 C431.36,232.43 429.72,232.42 428.78,231.90 C426.30,230.51 424.21,231.84 422.97,235.59 C422.35,237.46 421.54,239.01 421.17,239.01 C420.80,239.02 416.45,239.29 411.50,239.61 C396.68,240.58 364.58,240.70 363.37,239.80 C362.75,239.34 360.21,238.85 357.72,238.73 C355.23,238.60 353.41,238.16 353.66,237.75 C353.91,237.34 353.68,237.00 353.15,237.00 C352.62,237.00 352.41,236.17 352.67,235.15 C353.39,232.41 350.45,229.89 347.72,230.89 C344.89,231.93 338.21,231.13 337.26,229.64 C336.55,228.54 336.39,228.03 336.12,226.09 C335.93,224.68 327.31,222.08 324.51,222.58 C323.13,222.83 321.96,222.69 321.92,222.27 C321.87,221.85 321.72,220.45 321.58,219.16 C321.28,216.45 319.46,215.04 316.22,215.02 C313.84,215.00 313.27,214.19 312.66,210.00 C312.56,209.31 312.52,208.81 312.28,208.42 C311.56,207.25 309.06,207.17 297.82,206.61 C290.32,206.24 288.92,206.43 287.48,208.03 C286.56,209.04 286.10,210.35 286.46,210.93 C287.20,212.13 282.17,217.22 280.97,216.48 C280.00,215.88 277.93,221.60 278.80,222.47 C279.16,222.82 279.53,224.77 279.63,226.81 C279.73,228.84 279.86,230.80 279.91,231.17 C279.96,231.54 281.51,232.34 283.36,232.95 C286.26,233.91 286.64,234.42 286.21,236.69 C285.60,239.87 287.93,241.93 291.40,241.26 C293.19,240.92 293.97,241.34 294.47,242.89 C295.30,245.53 294.30,247.21 292.16,246.78 C291.25,246.59 289.75,247.13 288.84,247.97 C286.65,249.99 285.80,260.81 287.56,264.11 C288.31,265.52 288.47,266.93 287.96,267.55 C287.12,268.56 286.67,274.37 287.12,278.34 C287.24,279.35 288.27,280.51 289.42,280.92 C291.02,281.49 307.45,281.62 311.15,281.09 C312.09,280.96 314.07,274.92 313.48,273.97 C312.72,272.74 315.29,272.16 317.18,273.13 C319.37,274.26 322.00,271.71 321.32,269.13 C320.71,266.78 322.01,265.92 326.80,265.51 C328.83,265.34 331.09,265.04 331.81,264.85 C333.39,264.43 335.66,270.46 335.25,274.00 C335.08,275.38 334.86,280.61 334.76,285.63 C334.54,295.77 335.57,298.30 339.62,297.56 C341.49,297.23 342.13,297.66 342.61,299.59 C343.30,302.35 346.41,304.44 348.58,303.61 C349.36,303.31 350.00,303.53 350.00,304.09 C350.00,304.66 350.56,304.77 351.24,304.35 C351.92,303.93 353.88,303.52 355.58,303.45 C359.58,303.28 361.00,302.35 361.00,299.92 C361.00,297.97 364.78,295.77 367.28,296.26 C368.16,296.43 368.51,294.00 368.55,287.48 C368.58,282.51 368.89,277.99 369.24,277.43 C369.94,276.29 368.42,273.25 367.58,274.09 C367.37,274.30 366.61,276.45 365.71,279.37 C366.14,277.69 366.57,275.85 367.02,273.84 L 368.00 269.41 C368.11,271.28 370.26,272.00 375.61,272.00 C378.06,272.00 381.59,272.64 383.45,273.41 C385.31,274.19 387.10,274.57 387.42,274.25 C387.74,273.93 388.00,274.19 388.00,274.83 C388.00,275.48 387.53,276.00 386.96,276.00 C386.27,276.00 386.29,276.68 387.03,278.05 C387.83,279.56 388.70,279.92 390.31,279.42 C391.32,279.11 392.20,278.81 392.48,278.68 C392.51,279.13 392.54,279.60 392.56,280.07 C393.05,288.44 393.67,292.57 395.24,295.16 C393.84,293.30 393.00,291.16 393.00,289.05 C393.00,286.87 391.06,286.13 390.91,288.25 C390.00,300.59 390.06,302.41 391.45,303.94 C392.96,305.61 396.65,305.95 398.82,304.61 C401.13,303.18 405.21,302.93 406.65,304.12 C408.37,305.55 414.92,305.48 416.39,304.01 C417.38,303.02 417.33,295.35 416.33,293.72 C416.09,293.34 415.16,293.95 414.16,295.10 C416.11,292.58 416.19,291.45 415.77,279.74 L 415.50 272.02 C416.06,273.41 417.03,274.10 418.00,273.50 C419.68,272.46 430.00,271.96 430.00,272.92 C430.00,273.35 432.02,273.63 434.50,273.54 C437.04,273.46 439.04,273.85 439.09,274.45 C439.13,275.03 439.10,277.80 439.02,280.61 C438.87,285.72 440.96,289.76 443.08,288.45 C443.59,288.14 444.00,288.33 444.00,288.88 C444.00,290.41 448.95,289.69 450.06,287.99 C450.91,286.69 451.21,286.72 452.38,288.25 C453.85,290.16 457.51,290.60 458.51,288.98 C458.86,288.42 459.59,288.25 460.14,288.59 C462.87,290.27 471.81,289.15 472.08,287.09 C472.12,286.77 472.34,285.60 472.57,284.50 C473.93,278.03 474.18,270.92 473.11,269.63 C472.46,268.85 472.00,267.83 472.08,267.36 C472.51,264.98 471.72,263.99 468.85,263.24 C465.97,262.49 465.70,262.08 465.73,258.46 C465.79,253.12 466.78,251.05 469.89,249.77 C475.09,247.62 479.55,248.80 478.68,252.10 C478.01,254.69 480.76,257.28 483.61,256.73 C484.87,256.49 485.83,256.57 485.74,256.90 C485.65,257.23 485.88,258.91 486.24,260.64 C486.72,262.92 487.71,264.05 489.87,264.80 C491.50,265.37 493.13,265.54 493.50,265.17 C493.87,264.80 498.07,264.50 502.83,264.50 L 511.50 264.50 L 511.78 257.50 L 512.00 252.21 L 512.00 512.00 L 0.00 512.00 L 0.00 252.99 L 0.20 257.63 L 0.50 264.50 L 11.89 264.54 C23.83,264.57 26.00,263.87 26.00,259.99 C26.00,257.91 26.97,257.08 30.13,256.47 C32.99,255.92 33.40,255.40 33.45,252.21 C33.49,250.23 34.04,249.46 35.50,249.37 C36.60,249.29 37.95,249.11 38.50,248.96 C40.30,248.45 44.71,250.81 45.48,252.67 C45.89,253.68 46.24,256.28 46.27,258.46 C46.30,262.08 46.03,262.49 43.15,263.24 C40.28,263.99 39.49,264.98 39.92,267.36 C40.00,267.83 39.54,268.85 38.89,269.63 C37.80,270.95 38.06,278.02 39.45,284.89 C39.99,287.54 39.86,287.37 42.19,288.60 C43.12,289.10 47.24,289.60 51.34,289.73 C57.15,289.90 58.93,289.62 59.37,288.48 C59.79,287.38 59.17,287.00 56.92,287.00 C53.91,287.00 51.21,285.93 49.16,284.18 C53.26,287.53 59.64,288.09 63.47,284.75 C64.07,284.23 64.87,283.09 65.78,281.52 C64.91,283.04 64.15,284.15 63.65,284.60 C61.96,286.07 61.50,287.15 62.10,288.22 C63.02,289.86 68.00,290.37 68.00,288.82 C68.00,288.30 68.41,288.14 68.92,288.45 C69.43,288.76 70.58,288.28 71.49,287.37 C72.70,286.16 73.06,284.25 72.87,280.17 C72.63,274.78 72.71,274.59 75.56,273.82 C77.18,273.39 79.29,273.28 80.25,273.58 C81.24,273.90 82.00,273.62 82.00,272.95 C82.00,272.18 82.79,272.01 84.25,272.46 C85.49,272.84 88.89,273.29 91.80,273.46 L 96.30 273.72 L 96.15 278.71 C95.91,287.12 96.16,291.64 97.73,294.53 C96.30,292.25 95.21,293.82 94.87,298.74 C94.54,303.45 95.31,304.65 99.00,305.21 ZM 131.24 268.82 C131.74,268.80 132.24,268.77 132.74,268.75 L 143.99 268.24 L 144.32 269.60 C144.29,269.53 144.26,269.47 144.21,269.40 C143.73,268.66 139.85,268.46 132.33,268.77 C131.96,268.79 131.59,268.81 131.24,268.82 ZM 372.86 268.39 L 379.89 268.72 C381.84,268.82 383.70,268.91 385.34,269.00 L 384.54 269.00 C380.66,269.00 375.50,268.73 372.86,268.39 ZM 146.23 277.24 C149.18,288.66 150.87,292.62 153.69,294.70 C152.49,293.92 151.54,293.00 151.01,292.02 C149.75,289.67 147.02,281.04 146.23,277.24 ZM 398.91 298.54 C401.46,300.04 404.03,300.58 406.47,300.18 C405.18,300.49 403.94,300.55 402.91,300.28 C401.48,299.92 400.13,299.32 398.91,298.54 ZM 120.82 270.74 C120.91,270.10 120.99,269.72 121.05,269.66 C121.17,269.56 122.45,269.41 124.43,269.25 C121.97,269.52 121.20,269.92 120.82,270.74 ZM 415.36 267.83 L 415.33 266.99 L 419.41 265.98 C420.86,265.63 423.43,264.95 426.11,264.23 C423.40,264.96 420.76,265.65 419.25,266.03 C416.99,266.59 415.86,267.06 415.36,267.83 ZM 162.13 296.99 C164.46,296.69 166.64,295.56 168.60,293.60 C166.16,296.04 164.60,296.88 162.13,296.99 ZM 109.78 300.38 C111.32,299.87 112.62,299.34 113.72,298.70 C112.61,299.51 111.42,300.08 110.23,300.31 C110.08,300.34 109.93,300.36 109.78,300.38 ZM 45.28 277.18 C45.14,276.16 45.13,275.09 45.27,274.01 C45.36,273.39 45.59,272.40 45.94,271.19 C45.31,273.64 45.11,275.53 45.28,277.18 ZM 354.40 296.73 C349.44,297.96 343.97,295.56 341.47,290.30 C343.95,295.51 349.42,297.93 354.40,296.73 ZM 512.00 250.60 L 509.78 253.76 C509.07,254.77 508.11,255.71 507.03,256.49 C508.10,255.72 509.05,254.78 509.75,253.77 L 512.00 250.53 ZM 362.82 288.44 C362.07,290.33 361.31,291.69 360.42,292.81 C361.26,291.70 362.05,290.27 362.82,288.44 ZM 368.21 268.51 L 368.28 268.18 L 368.71 268.20 C368.48,268.27 368.32,268.37 368.21,268.51 ZM 97.97 294.95 C98.23,295.36 98.52,295.74 98.84,296.09 C98.48,295.73 98.19,295.35 97.99,294.99 C97.99,294.97 97.98,294.96 97.97,294.95 Z" fill="none"/>
<path d="M 99.00 305.21 C95.31,304.65 94.54,303.45 94.87,298.74 C95.23,293.52 96.43,292.07 97.99,294.99 C99.53,297.87 106.72,301.00 110.23,300.31 C114.01,299.57 117.79,295.48 119.06,290.77 C119.65,288.58 120.36,287.03 120.65,287.32 C120.93,287.60 121.37,291.08 121.63,295.04 C121.98,300.54 121.73,302.64 120.58,303.91 C119.05,305.61 115.36,305.96 113.18,304.61 C111.12,303.34 106.85,302.88 105.65,303.81 C103.87,305.17 101.73,305.62 99.00,305.21 ZM 153.30 304.16 C152.56,303.42 151.31,301.56 150.51,300.03 C149.04,297.18 146.50,295.57 144.96,296.52 C143.43,297.47 142.49,289.78 143.29,282.82 C143.52,280.80 143.37,278.59 142.95,277.91 C142.53,277.24 142.42,276.08 142.70,275.34 C143.45,273.39 146.00,273.70 146.01,275.75 C146.03,277.85 149.54,289.26 151.01,292.02 C152.47,294.76 157.23,297.00 161.55,297.00 C164.37,297.00 165.98,296.22 168.60,293.60 C172.82,289.38 172.94,286.69 169.45,273.58 C166.91,264.05 166.91,262.00 169.43,262.00 C170.16,262.00 174.67,260.42 179.45,258.49 C184.24,256.56 188.53,255.21 188.99,255.49 C189.44,255.77 191.06,258.14 192.58,260.75 C201.37,275.85 207.28,280.15 214.49,276.71 C218.95,274.58 221.48,270.58 221.36,265.87 C221.28,263.02 219.71,259.70 215.03,252.47 C211.61,247.18 208.96,242.75 209.15,242.62 C213.14,239.92 223.40,231.27 224.51,229.68 C226.26,227.19 226.46,221.11 224.91,217.71 C223.46,214.52 218.97,212.00 214.74,212.00 C211.32,212.00 206.19,214.79 201.00,219.45 C198.58,221.64 191.16,226.55 184.00,230.73 C177.01,234.81 165.40,239.29 154.08,242.28 C143.36,245.11 141.24,245.34 125.50,245.36 C112.87,245.37 106.32,244.91 100.00,243.57 C79.27,239.17 59.91,229.91 43.51,216.55 C33.58,208.47 27.66,210.45 13.29,226.66 C9.88,230.52 5.49,236.04 3.54,238.93 L 0.00 244.20 L 0.00 237.78 L 0.00 231.35 L 3.75 230.43 C5.95,229.88 7.52,228.88 7.56,228.00 C7.65,225.49 9.14,223.00 10.54,223.00 C12.55,223.00 14.99,220.13 14.36,218.50 C13.58,216.47 16.60,213.74 18.83,214.45 C20.94,215.12 24.45,211.84 23.77,209.82 C23.07,207.70 25.50,206.11 28.61,206.66 C32.67,207.38 35.89,207.41 40.33,206.79 C43.40,206.36 44.72,206.73 47.03,208.68 C48.71,210.09 49.67,211.70 49.34,212.55 C49.01,213.42 49.43,214.06 50.39,214.15 C51.28,214.23 52.56,214.35 53.25,214.40 C55.81,214.61 57.95,217.35 57.36,219.70 C57.02,221.04 57.25,222.05 57.89,222.12 C58.50,222.19 59.45,222.36 60.00,222.50 C60.55,222.64 63.40,222.81 66.34,222.88 C71.07,222.99 71.82,223.30 72.87,225.61 C73.77,227.59 73.78,228.56 72.91,229.61 C71.59,231.20 71.32,231.13 80.20,231.37 C87.08,231.56 87.95,231.86 88.42,234.16 C89.31,238.49 89.90,238.73 101.31,239.56 C116.32,240.65 147.23,240.81 148.60,239.81 C149.20,239.37 151.90,238.84 154.60,238.64 C159.00,238.30 159.50,238.02 159.47,235.88 C159.42,232.14 161.17,231.15 167.60,231.33 C173.55,231.50 176.00,230.44 176.00,227.69 C176.00,224.60 184.64,220.84 186.18,223.26 C186.79,224.22 186.97,224.22 186.98,223.28 C186.99,222.61 187.68,222.32 188.50,222.64 C189.32,222.95 190.04,222.83 190.08,222.36 C190.53,217.79 190.87,216.70 192.09,215.92 C192.87,215.43 194.53,215.02 195.78,215.02 C198.16,215.00 198.73,214.19 199.34,210.00 C199.74,207.21 200.01,207.15 213.50,206.71 C222.05,206.43 222.78,206.74 225.33,211.68 C226.77,214.47 229.44,216.53 231.16,216.19 C232.11,216.00 233.96,221.71 233.20,222.47 C232.84,222.82 232.47,224.77 232.37,226.81 C232.27,228.84 232.14,230.80 232.09,231.17 C232.04,231.54 230.49,232.34 228.64,232.95 C225.74,233.91 225.36,234.42 225.79,236.69 C226.40,239.87 224.07,241.93 220.60,241.26 C218.77,240.91 218.03,241.34 217.49,243.03 C216.75,245.38 218.51,247.34 220.67,246.55 C222.88,245.74 225.50,249.37 225.51,253.25 C225.52,255.31 225.16,257.00 224.71,257.00 C224.27,257.00 224.31,257.74 224.81,258.63 C225.32,259.53 225.41,261.69 225.01,263.44 C224.62,265.18 224.47,268.16 224.68,270.06 C225.54,277.72 225.10,280.02 222.58,280.92 C220.98,281.49 204.55,281.62 200.85,281.09 C199.91,280.96 197.93,274.92 198.52,273.97 C199.28,272.74 196.71,272.16 194.82,273.13 C192.63,274.26 190.00,271.71 190.68,269.13 C191.29,266.78 189.99,265.92 185.20,265.51 C183.17,265.34 180.84,265.04 180.02,264.85 C179.08,264.63 178.41,265.41 178.18,267.00 C177.97,268.38 177.49,269.95 177.10,270.50 C176.70,271.05 176.48,272.40 176.60,273.50 C177.58,282.67 177.84,289.00 177.23,289.00 C176.83,289.00 176.55,290.46 176.62,292.25 C176.78,296.37 175.38,298.27 173.09,297.05 C170.75,295.79 168.95,297.15 169.46,299.80 C169.69,301.01 169.43,302.00 168.88,302.00 C168.33,302.00 168.14,302.42 168.46,302.93 C169.92,305.30 155.60,306.46 153.30,304.16 ZM 391.45 303.94 C390.06,302.41 390.00,300.59 390.91,288.25 C391.06,286.13 393.00,286.87 393.00,289.05 C393.00,293.88 397.42,298.89 402.91,300.28 C406.08,301.09 411.15,298.90 413.75,295.59 C414.90,294.13 416.06,293.29 416.33,293.72 C417.33,295.35 417.38,303.02 416.39,304.01 C414.92,305.48 408.37,305.55 406.65,304.12 C405.21,302.93 401.13,303.18 398.82,304.61 C396.65,305.95 392.96,305.61 391.45,303.94 ZM 350.00 304.09 C350.00,303.53 349.36,303.31 348.58,303.61 C346.41,304.44 343.30,302.35 342.61,299.59 C342.13,297.66 341.49,297.23 339.62,297.56 C335.57,298.30 334.54,295.77 334.76,285.63 C334.86,280.61 335.08,275.38 335.25,274.00 C335.66,270.46 333.39,264.43 331.81,264.85 C331.09,265.04 328.83,265.34 326.80,265.51 C322.01,265.92 320.71,266.78 321.32,269.13 C322.00,271.71 319.37,274.26 317.18,273.13 C315.29,272.16 312.72,272.74 313.48,273.97 C314.07,274.92 312.09,280.96 311.15,281.09 C307.45,281.62 291.02,281.49 289.42,280.92 C288.27,280.51 287.24,279.35 287.12,278.34 C286.67,274.37 287.12,268.56 287.96,267.55 C288.47,266.93 288.31,265.52 287.56,264.11 C285.80,260.81 286.65,249.99 288.84,247.97 C289.75,247.13 291.25,246.59 292.16,246.78 C294.30,247.21 295.30,245.53 294.47,242.89 C293.97,241.34 293.19,240.92 291.40,241.26 C287.93,241.93 285.60,239.87 286.21,236.69 C286.64,234.42 286.26,233.91 283.36,232.95 C281.51,232.34 279.96,231.54 279.91,231.17 C279.86,230.80 279.73,228.84 279.63,226.81 C279.53,224.77 279.16,222.82 278.80,222.47 C277.93,221.60 280.00,215.88 280.97,216.48 C282.17,217.22 287.20,212.13 286.46,210.93 C286.10,210.35 286.56,209.04 287.48,208.03 C288.92,206.43 290.32,206.24 297.82,206.61 C312.77,207.36 312.26,207.24 312.66,210.00 C313.27,214.19 313.84,215.00 316.22,215.02 C319.46,215.04 321.28,216.45 321.58,219.16 C321.72,220.45 321.87,221.85 321.92,222.27 C321.96,222.69 323.13,222.83 324.51,222.58 C327.31,222.08 335.93,224.68 336.12,226.09 C336.39,228.03 336.55,228.54 337.26,229.64 C338.21,231.13 344.89,231.93 347.72,230.89 C350.45,229.89 353.39,232.41 352.67,235.15 C352.41,236.17 352.62,237.00 353.15,237.00 C353.68,237.00 353.91,237.34 353.66,237.75 C353.41,238.16 355.23,238.60 357.72,238.73 C360.21,238.85 362.75,239.34 363.37,239.80 C364.58,240.70 396.68,240.58 411.50,239.61 C416.45,239.29 420.80,239.02 421.17,239.01 C421.54,239.01 422.35,237.46 422.97,235.59 C424.21,231.84 426.30,230.51 428.78,231.90 C429.72,232.42 431.36,232.43 432.69,231.93 C433.95,231.45 435.66,231.32 436.49,231.64 C437.54,232.04 438.00,231.57 438.00,230.11 C438.00,228.95 438.47,228.00 439.04,228.00 C439.62,228.00 440.01,227.44 439.93,226.75 C439.49,223.41 440.09,222.95 444.75,223.03 C453.22,223.18 454.50,222.77 454.50,219.93 C454.50,216.84 456.64,214.60 459.94,214.23 C462.91,213.90 462.79,214.02 463.21,210.98 C463.71,207.32 464.69,206.24 467.23,206.54 C468.48,206.69 471.62,207.08 474.21,207.41 C476.90,207.74 479.97,207.51 481.38,206.87 C485.93,204.80 492.02,208.38 489.03,211.37 C487.75,212.65 487.67,214.32 488.93,213.54 C489.44,213.23 490.16,213.44 490.52,214.02 C490.87,214.61 492.03,214.81 493.09,214.47 C495.40,213.74 498.43,216.42 497.64,218.50 C497.01,220.13 499.45,223.00 501.46,223.00 C502.86,223.00 504.35,225.49 504.44,228.00 C504.48,228.88 506.05,229.88 508.25,230.43 L 512.00 231.35 L 512.00 237.35 L 512.00 243.34 L 508.77 238.42 C506.99,235.71 500.80,228.66 495.02,222.75 C484.72,212.22 484.41,212.00 480.00,212.00 C475.16,212.01 473.54,212.85 464.34,220.11 C445.05,235.35 420.25,244.31 393.75,245.62 C364.01,247.10 337.06,238.33 310.52,218.54 C303.01,212.95 301.14,212.00 297.59,212.00 C292.81,212.00 289.62,213.90 287.49,218.01 C284.19,224.40 286.51,229.52 296.02,236.92 C299.86,239.91 303.00,242.65 303.00,243.02 C303.00,243.39 300.30,247.99 297.00,253.26 C292.67,260.16 291.00,263.79 291.00,266.28 C291.00,272.74 298.22,278.74 304.57,277.55 C308.57,276.80 313.80,271.18 319.38,261.64 C321.52,257.99 323.63,255.00 324.08,255.00 C324.52,255.00 328.79,256.58 333.57,258.50 C338.34,260.42 342.87,262.00 343.63,262.00 C345.60,262.00 345.34,264.89 342.33,276.35 C339.70,286.36 339.69,286.55 341.47,290.29 C344.80,297.32 353.45,299.25 359.07,294.23 C361.41,292.14 362.76,289.41 364.60,283.04 C365.95,278.41 367.28,274.38 367.58,274.09 C368.42,273.25 369.94,276.29 369.24,277.43 C368.89,277.99 368.58,282.51 368.55,287.48 C368.51,294.00 368.16,296.43 367.28,296.26 C364.78,295.77 361.00,297.97 361.00,299.92 C361.00,302.35 359.58,303.28 355.58,303.45 C353.88,303.52 351.92,303.93 351.24,304.35 C350.56,304.77 350.00,304.66 350.00,304.09 ZM 42.19 288.60 C39.86,287.37 39.99,287.54 39.45,284.89 C38.06,278.02 37.80,270.95 38.89,269.63 C39.54,268.85 40.00,267.83 39.92,267.36 C39.49,264.98 40.28,263.99 43.15,263.24 C46.03,262.49 46.30,262.08 46.27,258.46 C46.24,256.28 45.89,253.68 45.48,252.67 C44.71,250.81 40.30,248.45 38.50,248.96 C37.95,249.11 36.60,249.29 35.50,249.37 C34.04,249.46 33.49,250.23 33.45,252.21 C33.40,255.40 32.99,255.92 30.13,256.47 C26.97,257.08 26.00,257.91 26.00,259.99 C26.00,263.87 23.83,264.57 11.89,264.54 L 0.50 264.50 L 0.20 257.63 L -0.10 250.75 L 3.24 254.29 C7.31,258.61 12.40,259.88 16.71,257.65 C18.34,256.81 21.52,253.73 23.79,250.81 C26.05,247.89 29.19,243.99 30.76,242.15 L 33.62 238.79 L 41.56 243.86 C45.93,246.65 50.35,249.53 51.38,250.26 C53.20,251.54 53.13,251.93 49.52,260.96 C47.45,266.12 45.54,271.99 45.27,274.01 C44.34,280.95 49.76,287.00 56.92,287.00 C59.17,287.00 59.79,287.38 59.37,288.48 C58.93,289.62 57.15,289.90 51.34,289.73 C47.24,289.60 43.12,289.10 42.19,288.60 ZM 62.10 288.22 C61.50,287.15 61.96,286.07 63.65,284.60 C64.97,283.44 67.97,277.77 70.31,272.00 C73.14,265.04 75.07,261.55 76.04,261.65 C76.84,261.73 81.78,262.89 87.00,264.23 L 96.50 266.67 L 96.80 270.22 L 97.11 273.77 L 91.80 273.46 C88.89,273.29 85.49,272.84 84.25,272.46 C82.79,272.01 82.00,272.18 82.00,272.95 C82.00,273.62 81.24,273.90 80.25,273.58 C79.29,273.28 77.18,273.39 75.56,273.82 C72.71,274.59 72.63,274.78 72.87,280.17 C73.06,284.25 72.70,286.16 71.49,287.37 C70.58,288.28 69.43,288.76 68.92,288.45 C68.41,288.14 68.00,288.30 68.00,288.82 C68.00,290.37 63.02,289.86 62.10,288.22 ZM 444.00 288.88 C444.00,288.33 443.59,288.14 443.08,288.45 C440.96,289.76 438.87,285.72 439.02,280.61 C439.10,277.80 439.13,275.03 439.09,274.45 C439.04,273.85 437.04,273.46 434.50,273.54 C432.02,273.63 430.00,273.35 430.00,272.92 C430.00,271.96 419.68,272.46 418.00,273.50 C416.52,274.42 415.04,272.33 415.02,269.29 C415.00,267.51 415.84,266.87 419.25,266.03 C421.59,265.45 426.64,264.10 430.47,263.04 C435.77,261.57 437.63,261.39 438.22,262.30 C438.64,262.96 440.61,267.66 442.60,272.75 C446.87,283.70 450.01,287.00 456.18,287.00 C459.42,287.00 460.86,286.34 463.60,283.60 C468.33,278.87 468.21,274.21 463.05,261.38 C460.88,255.98 459.19,251.49 459.30,251.40 C459.41,251.31 461.98,249.74 465.00,247.91 C468.02,246.08 472.26,243.32 474.41,241.78 C479.06,238.46 479.01,238.43 487.72,249.31 C494.42,257.67 498.32,259.83 503.72,258.18 C506.03,257.47 508.39,255.75 509.78,253.76 L 512.07 250.50 L 511.78 257.50 L 511.50 264.50 L 502.83 264.50 C498.07,264.50 493.87,264.80 493.50,265.17 C493.13,265.54 491.50,265.37 489.87,264.80 C487.71,264.05 486.72,262.92 486.24,260.64 C485.88,258.91 485.65,257.23 485.74,256.90 C485.83,256.57 484.87,256.49 483.61,256.73 C480.76,257.28 478.01,254.69 478.68,252.10 C479.55,248.80 475.09,247.62 469.89,249.77 C466.78,251.05 465.79,253.12 465.73,258.46 C465.70,262.08 465.97,262.49 468.85,263.24 C471.72,263.99 472.51,264.98 472.08,267.36 C472.00,267.83 472.46,268.85 473.11,269.63 C474.18,270.92 473.93,278.03 472.57,284.50 C472.34,285.60 472.12,286.77 472.08,287.09 C471.81,289.15 462.87,290.27 460.14,288.59 C459.59,288.25 458.86,288.42 458.51,288.98 C457.51,290.60 453.85,290.16 452.38,288.25 C451.21,286.72 450.91,286.69 450.06,287.99 C448.95,289.69 444.00,290.41 444.00,288.88 ZM 121.25 279.34 C119.94,278.81 119.63,274.99 120.60,271.38 C121.13,269.41 122.00,269.21 132.33,268.77 C139.85,268.46 143.73,268.66 144.21,269.40 C145.19,270.91 142.42,271.85 136.72,271.93 C134.09,271.97 130.41,272.64 128.55,273.41 C126.69,274.19 124.90,274.57 124.58,274.25 C124.26,273.93 124.00,274.19 124.00,274.83 C124.00,275.48 124.47,276.00 125.04,276.00 C125.74,276.00 125.73,276.64 125.00,278.00 C123.90,280.05 123.43,280.22 121.25,279.34 ZM 387.03 278.05 C386.29,276.68 386.27,276.00 386.96,276.00 C387.53,276.00 388.00,275.48 388.00,274.83 C388.00,274.19 387.74,273.93 387.42,274.25 C387.10,274.57 385.31,274.19 383.45,273.41 C381.59,272.64 378.06,272.00 375.61,272.00 C370.11,272.00 368.00,271.24 368.00,269.26 C368.00,268.01 368.87,267.85 372.64,268.36 C375.19,268.71 380.55,269.00 384.54,269.00 L 391.80 269.00 L 392.22 273.75 C392.46,276.36 392.61,278.56 392.57,278.63 C392.53,278.69 391.51,279.05 390.31,279.42 C388.70,279.92 387.83,279.56 387.03,278.05 Z" fill="rgb(253,253,253)"/>
</g>
</svg>